<svg xmlns="http://www.w3.org/2000/svg" width="365.355" height="138.88" viewBox="0 0 365.355 138.88">
  <g id="Gruppe_76" data-name="Gruppe 76" transform="translate(-109.251 -167.365)">
    <g id="Gruppe_111" data-name="Gruppe 111" transform="translate(140.117 222.94)">
      <g id="Gruppe_76-2" data-name="Gruppe 76" transform="translate(20.405 12.917)">
        <ellipse id="Ellipse_42" data-name="Ellipse 42" cx="2.439" cy="2.469" rx="2.439" ry="2.469" fill="#dcedb4"/>
      </g>
      <g id="Gruppe_77" data-name="Gruppe 77" transform="translate(25.829 17.075)">
        <ellipse id="Ellipse_43" data-name="Ellipse 43" cx="2.277" cy="2.305" rx="2.277" ry="2.305" fill="#dcedb4"/>
      </g>
      <g id="Gruppe_78" data-name="Gruppe 78" transform="translate(31.254 20.757)">
        <ellipse id="Ellipse_44" data-name="Ellipse 44" cx="2.116" cy="2.142" rx="2.116" ry="2.142" fill="#dcedb4"/>
      </g>
      <g id="Gruppe_79" data-name="Gruppe 79" transform="translate(36.678 24.178)">
        <ellipse id="Ellipse_45" data-name="Ellipse 45" cx="1.954" cy="1.978" rx="1.954" ry="1.978" fill="#dcedb4"/>
      </g>
      <g id="Gruppe_80" data-name="Gruppe 80" transform="translate(42.102 26.344)">
        <ellipse id="Ellipse_46" data-name="Ellipse 46" cx="1.792" cy="1.814" rx="1.792" ry="1.814" fill="#dcedb4"/>
      </g>
      <g id="Gruppe_81" data-name="Gruppe 81" transform="translate(47.527 27.47)">
        <ellipse id="Ellipse_47" data-name="Ellipse 47" cx="1.631" cy="1.651" rx="1.631" ry="1.651" fill="#dcedb4"/>
      </g>
      <g id="Gruppe_82" data-name="Gruppe 82" transform="translate(52.951 26.691)">
        <ellipse id="Ellipse_48" data-name="Ellipse 48" cx="1.469" cy="1.487" rx="1.469" ry="1.487" fill="#dcedb4"/>
      </g>
      <g id="Gruppe_83" data-name="Gruppe 83" transform="translate(58.376 24.828)">
        <ellipse id="Ellipse_49" data-name="Ellipse 49" cx="1.307" cy="1.323" rx="1.307" ry="1.323" fill="#dcedb4"/>
      </g>
      <g id="Gruppe_84" data-name="Gruppe 84" transform="translate(63.8 21.753)">
        <ellipse id="Ellipse_50" data-name="Ellipse 50" cx="1.146" cy="1.16" rx="1.146" ry="1.16" fill="#dcedb4"/>
      </g>
      <g id="Gruppe_85" data-name="Gruppe 85" transform="translate(69.225 18.374)">
        <ellipse id="Ellipse_51" data-name="Ellipse 51" cx="0.984" cy="0.996" rx="0.984" ry="0.996" fill="#dcedb4"/>
      </g>
      <g id="Gruppe_86" data-name="Gruppe 86" transform="translate(15.303 9.086)">
        <ellipse id="Ellipse_52" data-name="Ellipse 52" cx="2.277" cy="2.305" rx="2.277" ry="2.305" fill="#dcedb4"/>
      </g>
      <g id="Gruppe_87" data-name="Gruppe 87" transform="translate(10.202 5.732)">
        <ellipse id="Ellipse_53" data-name="Ellipse 53" cx="2.116" cy="2.142" rx="2.116" ry="2.142" fill="#dcedb4"/>
      </g>
      <g id="Gruppe_88" data-name="Gruppe 88" transform="translate(5.101 2.637)">
        <ellipse id="Ellipse_54" data-name="Ellipse 54" cx="1.954" cy="1.978" rx="1.954" ry="1.978" fill="#dcedb4"/>
      </g>
      <g id="Gruppe_89" data-name="Gruppe 89" transform="translate(0 0.799)">
        <ellipse id="Ellipse_55" data-name="Ellipse 55" cx="1.792" cy="1.814" rx="1.792" ry="1.814" fill="#dcedb4"/>
      </g>
      <g id="Gruppe_90" data-name="Gruppe 90" transform="translate(90.038 3.297)">
        <ellipse id="Ellipse_56" data-name="Ellipse 56" cx="1.307" cy="1.323" rx="1.307" ry="1.323" fill="#dcedb4"/>
      </g>
      <g id="Gruppe_91" data-name="Gruppe 91" transform="translate(84.937 6.699)">
        <ellipse id="Ellipse_57" data-name="Ellipse 57" cx="1.146" cy="1.16" rx="1.146" ry="1.16" fill="#dcedb4"/>
      </g>
      <g id="Gruppe_92" data-name="Gruppe 92" transform="translate(79.836 10.405)">
        <ellipse id="Ellipse_58" data-name="Ellipse 58" cx="0.984" cy="0.996" rx="0.984" ry="0.996" fill="#dcedb4"/>
      </g>
      <g id="Gruppe_93" data-name="Gruppe 93" transform="translate(73.075 12.917)">
        <ellipse id="Ellipse_59" data-name="Ellipse 59" cx="2.439" cy="2.469" rx="2.439" ry="2.469" fill="#dcedb4"/>
      </g>
      <g id="Gruppe_94" data-name="Gruppe 94" transform="translate(78.5 17.075)">
        <ellipse id="Ellipse_60" data-name="Ellipse 60" cx="2.277" cy="2.305" rx="2.277" ry="2.305" fill="#dcedb4"/>
      </g>
      <g id="Gruppe_95" data-name="Gruppe 95" transform="translate(83.924 20.757)">
        <ellipse id="Ellipse_61" data-name="Ellipse 61" cx="2.116" cy="2.142" rx="2.116" ry="2.142" fill="#dcedb4"/>
      </g>
      <g id="Gruppe_96" data-name="Gruppe 96" transform="translate(89.349 24.178)">
        <ellipse id="Ellipse_62" data-name="Ellipse 62" cx="1.954" cy="1.978" rx="1.954" ry="1.978" fill="#dcedb4"/>
      </g>
      <g id="Gruppe_97" data-name="Gruppe 97" transform="translate(94.773 26.344)">
        <ellipse id="Ellipse_63" data-name="Ellipse 63" cx="1.792" cy="1.814" rx="1.792" ry="1.814" fill="#dcedb4"/>
      </g>
      <g id="Gruppe_98" data-name="Gruppe 98" transform="translate(67.974 9.086)">
        <ellipse id="Ellipse_64" data-name="Ellipse 64" cx="2.277" cy="2.305" rx="2.277" ry="2.305" fill="#dcedb4"/>
      </g>
      <g id="Gruppe_99" data-name="Gruppe 99" transform="translate(62.998 5.717)">
        <ellipse id="Ellipse_65" data-name="Ellipse 65" cx="2.173" cy="2.142" rx="2.173" ry="2.142" fill="#dcedb4"/>
      </g>
      <g id="Gruppe_100" data-name="Gruppe 100" transform="translate(57.772 2.637)">
        <ellipse id="Ellipse_66" data-name="Ellipse 66" cx="1.954" cy="1.978" rx="1.954" ry="1.978" fill="#dcedb4"/>
      </g>
      <g id="Gruppe_101" data-name="Gruppe 101" transform="translate(52.671 0.799)">
        <ellipse id="Ellipse_67" data-name="Ellipse 67" cx="1.792" cy="1.814" rx="1.792" ry="1.814" fill="#dcedb4"/>
      </g>
      <g id="Gruppe_102" data-name="Gruppe 102" transform="translate(47.57)">
        <ellipse id="Ellipse_68" data-name="Ellipse 68" cx="1.631" cy="1.651" rx="1.631" ry="1.651" fill="#dcedb4"/>
      </g>
      <g id="Gruppe_103" data-name="Gruppe 103" transform="translate(42.468 1.107)">
        <ellipse id="Ellipse_69" data-name="Ellipse 69" cx="1.469" cy="1.487" rx="1.469" ry="1.487" fill="#dcedb4"/>
      </g>
      <g id="Gruppe_104" data-name="Gruppe 104" transform="translate(37.367 3.297)">
        <ellipse id="Ellipse_70" data-name="Ellipse 70" cx="1.307" cy="1.323" rx="1.307" ry="1.323" fill="#dcedb4"/>
      </g>
      <g id="Gruppe_105" data-name="Gruppe 105" transform="translate(32.266 6.699)">
        <ellipse id="Ellipse_71" data-name="Ellipse 71" cx="1.146" cy="1.16" rx="1.146" ry="1.16" fill="#dcedb4"/>
      </g>
      <g id="Gruppe_106" data-name="Gruppe 106" transform="translate(27.165 10.405)">
        <ellipse id="Ellipse_72" data-name="Ellipse 72" cx="0.984" cy="0.996" rx="0.984" ry="0.996" fill="#dcedb4"/>
      </g>
      <g id="Gruppe_107" data-name="Gruppe 107" transform="translate(0.109 26.691)">
        <ellipse id="Ellipse_73" data-name="Ellipse 73" cx="1.469" cy="1.487" rx="1.469" ry="1.487" fill="#dcedb4"/>
      </g>
      <g id="Gruppe_108" data-name="Gruppe 108" transform="translate(5.534 24.828)">
        <ellipse id="Ellipse_74" data-name="Ellipse 74" cx="1.307" cy="1.323" rx="1.307" ry="1.323" fill="#dcedb4"/>
      </g>
      <g id="Gruppe_109" data-name="Gruppe 109" transform="translate(10.958 21.753)">
        <ellipse id="Ellipse_75" data-name="Ellipse 75" cx="1.146" cy="1.16" rx="1.146" ry="1.16" fill="#dcedb4"/>
      </g>
      <g id="Gruppe_110" data-name="Gruppe 110" transform="translate(16.383 18.374)">
        <ellipse id="Ellipse_76" data-name="Ellipse 76" cx="0.984" cy="0.996" rx="0.984" ry="0.996" fill="#dcedb4"/>
      </g>
    </g>
    <g id="Gruppe_112" data-name="Gruppe 112" transform="translate(283.831 203.724)">
      <path id="Pfad_44" data-name="Pfad 44" d="M449.25,290.663h-7.2V284.9a18.729,18.729,0,0,1-14.316,6.662c-9,0-14.946-5.4-14.946-17.286V250.148h7.2v22.508c0,7.653,3.062,12.155,10.444,12.155,4.682,0,9.094-2.791,11.615-6.032V250.148h7.2Z" transform="translate(-412.786 -238.894)" fill="#4dcf82"/>
      <path id="Pfad_45" data-name="Pfad 45" d="M489.486,230.581h7.2v11.254h14.856v6.752H496.689v17.647c0,6.392,2.071,10.084,7.2,10.084a10.605,10.605,0,0,0,6.393-2.251l2.251,5.582a16.472,16.472,0,0,1-10.354,3.422c-9.093,0-12.695-5.762-12.695-16.116Z" transform="translate(-445.371 -230.581)" fill="#4dcf82"/>
      <path id="Pfad_46" data-name="Pfad 46" d="M552.576,248.582c12.965,0,21.608,9,21.608,21.158S565.541,290.9,552.576,290.9s-21.608-9-21.608-21.158S539.611,248.582,552.576,248.582Zm0,35.564c8.1,0,13.956-5.762,13.956-14.405,0-8.463-5.852-14.405-13.956-14.405-7.923,0-13.955,5.852-13.955,14.405C538.621,278.2,544.473,284.146,552.576,284.146Z" transform="translate(-462.995 -238.229)" fill="#4dcf82"/>
      <path id="Pfad_47" data-name="Pfad 47" d="M616.276,249.483h7.2v4.772c2.791-3.241,8.193-5.672,13.776-5.672,11.524,0,18.727,8.553,18.727,20.528,0,12.335-8.373,21.788-21.069,21.788-4.321,0-8.553-.9-11.434-2.791V308h-7.2Zm7.2,11.434v20.078a17.966,17.966,0,0,0,10.8,3.151c8.643,0,14.045-6.213,14.045-14.766,0-8.193-4.772-14.045-13.145-14.045A15.394,15.394,0,0,0,623.479,260.917Z" transform="translate(-499.237 -238.229)" fill="#4dcf82"/>
      <path id="Pfad_48" data-name="Pfad 48" d="M692.335,260.016c0-7.112,5.763-11.434,13.776-11.434,6.663,0,11.524,2.431,13.955,4.772l-3.421,5.492a15.348,15.348,0,0,0-10.174-3.962c-4.052,0-6.483,2.341-6.483,5.042,0,8.554,21.878,4.5,21.878,18.727,0,8.554-7.563,12.245-15.666,12.245-6.573,0-13.055-3.421-14.946-6.3l4.052-5.132c2.341,2.7,7.653,5.132,11.7,5.132,3.782,0,7.2-1.891,7.2-5.582C714.213,270.82,692.335,274.872,692.335,260.016Z" transform="translate(-531.091 -238.229)" fill="#4dcf82"/>
    </g>
    <g id="Gruppe_113" data-name="Gruppe 113" transform="translate(109.251 167.365)">
      <path id="Pfad_49" data-name="Pfad 49" d="M269.4,351.947c3.078-3.411,3.533-4.8,6.847-7.957,1.076-1.02,4.792-3.8,4.516-4.574-.641-1.706-5.462-2.094-9.866,1.568-4.972,4.142-7.176,7.22-12.086,11.815,3.354-.4,7.494-.733,9.311-.825C269.933,351.906,268.988,351.954,269.4,351.947Z" transform="translate(-172.79 -239.927)" fill="#4dcf82"/>
      <path id="Pfad_50" data-name="Pfad 50" d="M237.567,356.053c2.156-.008,6.04-.507,10.382-1.017,3.7-3.578,2.723-3.694,6.392-7.25,1.08-.959,3.879-3.11,3.664-3.729-.453-1.173-3.235-1.817-6.089.036" transform="translate(-163.765 -241.952)" fill="#4dcf82"/>
      <path id="Pfad_51" data-name="Pfad 51" d="M294.946,346.941c1.109-1.122,5-4.244,4.657-5.055-1.334-2.143-5.968-2.111-10.554,1.971-3.633,3.206-5.29,5.481-8.986,9.123,4.64.22,6.654,1.3,7.628,2.031A105.353,105.353,0,0,1,294.946,346.941Z" transform="translate(-181.82 -240.91)" fill="#4dcf82"/>
      <path id="Pfad_52" data-name="Pfad 52" d="M279.383,232.6c0-11.153-8.365-18.529-18.8-18.529-6.319,0-11.337,2.11-14.87,5.585a69.289,69.289,0,1,0-118.287,63.768h0a9.987,9.987,0,0,0,1.467,1.548,69.089,69.089,0,0,0,41.268,20.453,59.4,59.4,0,0,0,17.239.346c11.508-1.468,25.063-7.995,31.179-12.652,4.62-3.519,9.728-12.587,14.653-18.358,1.14-1.339,2.756-2.937,2.289-3.822-1.036-1.989-6.9-1.964-11.649,2.916-7.551,7.724-7.939,8.486-7.939,8.486a2.786,2.786,0,0,1-.164,4.406c-2.6,2.306-7.685,2.861-15.861,5.311a27.232,27.232,0,0,1-5.248,1.376c-5.327.352-10.78.152-12.17-.829,1.717.579,9.549.123,11.539-.23,1.974-.37,18.728-5.479,18.728-5.479s6.144-3.143-1.584-5.459c-5.356-1.62-19.9,1.57-28.521,1.494-5.5-.056-6.122-2.7-17.805-2.7-9.744,0-13.435,3.407-25.019-6.366-10.727-10.859-16.847-22.045-16.847-37.765a58.372,58.372,0,0,1,116.741-.527h0c.163,12.564,8.664,20.771,21.668,20.771,5.4,0,11.243-1.709,15.2-5.307l-2.249-5.666c-2.608,2.428-7.2,4.227-12.412,4.227-7.915,0-13.491-4.5-14.121-12.143h31.121A23.478,23.478,0,0,0,279.383,232.6Zm-32.02-.989c.809-6.207,5.486-10.793,12.862-10.793,7.016,0,11.333,4.137,11.693,10.793Z" transform="translate(-109.251 -167.365)" fill="#4dcf82"/>
    </g>
  </g>
</svg>
