<svg xmlns="http://www.w3.org/2000/svg" width="20" height="20.042" viewBox="0 0 20 20.042">
  <g id="telefon" transform="translate(-0.539 0)">
    <g id="Gruppe_36" data-name="Gruppe 36" transform="translate(0.539 0)">
      <path id="Pfad_31" data-name="Pfad 31" d="M20.015,14.709l-2.8-2.8a1.86,1.86,0,0,0-3.1.7,1.9,1.9,0,0,1-2.2,1.2A8.625,8.625,0,0,1,6.729,8.616a1.81,1.81,0,0,1,1.2-2.2,1.86,1.86,0,0,0,.7-3.1L5.83.524a2,2,0,0,0-2.7,0l-1.9,1.9c-1.9,2,.2,7.292,4.895,11.987S16.119,21.3,18.117,19.3l1.9-1.9A2,2,0,0,0,20.015,14.709Z" transform="translate(-0.539 0)" fill="#DCEDB4"/>
    </g>
  </g>
</svg>
